<?xml version="1.0" encoding="UTF-8"?>
<svg id="Layer_1" data-name="Layer 1" xmlns="http://www.w3.org/2000/svg" viewBox="0 0 1000 1000">
  <defs>
    <style>
      .cls-1 {
        fill: #04653c;
      }

      .cls-2 {
        fill: #ff4e00;
      }

      .cls-3 {
        fill: #fff;
      }

      .cls-4 {
        fill: #a4c12a;
      }
    </style>
  </defs>
  <rect class="cls-1" x="0" width="1000" height="1000"/>
  <path class="cls-2" d="m941.32,651.49H58.68c-15.04,0-27.27-12.24-27.27-27.28v-248.43c0-15.04,12.24-27.27,27.27-27.27h882.64c15.04,0,27.27,12.24,27.27,27.27v248.43c0,15.04-12.24,27.28-27.27,27.28ZM58.68,358.03c-9.79,0-17.76,7.97-17.76,17.76v248.43c0,9.79,7.97,17.76,17.76,17.76h882.64c9.79,0,17.76-7.97,17.76-17.76v-248.43c0-9.79-7.97-17.76-17.76-17.76H58.68Z"/>
  <g>
    <path class="cls-3" d="m169.04,436.93c-1.44-.44-2.88-.88-4.33-1.33-11.86-3.72-17.15-6.32-17.15-11.9,0-4.92,1.83-9.96,15.39-9.96,7.79,0,12.71,1.46,14.62,4.34,1.69,2.55,1.33,6.72-1.07,12.39l22.52,6.88.71-2.36c2.55-8.52,1.69-15.73-2.56-21.43-7.95-10.67-24.84-12.26-34.21-12.26-10.95,0-20.23,2-26.84,5.78-7.93,4.53-12.11,11.62-12.11,20.5,0,18.77,17.06,24.12,33.56,29.29.78.24,1.56.49,2.34.74l1.92.61c12.47,3.93,18.98,6.29,18.98,13.11,0,9.89-7.52,11.25-15.65,11.25-9.72,0-16.13-2.02-19.06-6-2.62-3.57-2.78-9.14-.47-16.57l-23.36-4.1c-2.51,10.46-1.15,19.11,4.05,25.69,8.74,11.08,25.81,13.41,38.58,13.41,11.39,0,20.45-1.84,26.93-5.46,8.32-4.65,12.54-12.13,12.54-22.24,0-19.56-17.96-25.06-35.33-30.37Z"/>
    <path class="cls-3" d="m247.23,475.76l-3.24-.63-.16,3.29c-.21,4.15-.91,4.15-2.07,4.15-.66,0-1.28,0-1.82-2.25-.59-2.48-.63-6.31-.63-11.46v-33.12h10.47c9.07,0,9.07-5.54,9.07-9.58v-2.85h-19.54v-20.7h-17.1v2.85c0,15.37-5.05,16.8-13.3,17.87l-2.49.32v12.09h9.32v35.45c0,15.36,8.83,23.82,24.85,23.82,11.74,0,18.93-4.22,21.97-12.91l1.09-3.11-3.24-.63-13.2-2.59Z"/>
    <path class="cls-3" d="m301.9,422c-12.14,0-22.17,3.87-28.99,11.18-6.01,6.45-9.32,15.44-9.32,25.32s3.31,18.87,9.32,25.32c6.82,7.31,16.84,11.18,28.99,11.18s22.17-3.87,28.99-11.18c6.01-6.45,9.32-15.44,9.32-25.32s-3.31-18.87-9.32-25.32c-6.82-7.31-16.84-11.18-28.99-11.18Zm-3.26,12.67c.76-.09,1.51-.14,2.23-.14,3.18,0,12.86,0,15.67,22.12,2.02,16.03-1.7,24.43-11.38,25.67-.76.09-1.51.14-2.23.14-3.18,0-12.86,0-15.67-22.12-2.02-16.03,1.7-24.43,11.38-25.67Z"/>
    <path class="cls-3" d="m392.77,467.92s.35,8.23-2.95,11.11c-2.38,2.09-5.24,3.53-9.24,3.53-10.33,0-14.74-7.2-14.74-24.06s4.41-24.06,14.74-24.06c3.71,0,6.39,1.2,8.41,3.12,3.12,2.95,3.56,11.24,3.56,11.24h22.58c-.57-6-3.04-12.53-7.45-17.13-6.07-6.33-15.4-9.66-26.97-9.66-12.84,0-22.78,3.77-29.56,11.2-5.81,6.37-8.88,15.12-8.88,25.3s3.05,18.93,8.81,25.29c6.74,7.44,16.67,11.21,29.5,11.21,11.93,0,21.68-3.44,28.01-10.13,4.94-5.22,5.86-8.11,6.42-16.95h-22.23Z"/>
    <path class="cls-3" d="m486.91,466.32c-3.24-10.06-7.66-16.87-18.33-18.71l13.43-9.98c5.44-3.95,11.81-4.48,17.32-4.48h2.85v-9.85h-40.39v9.85h2.85c.75,0,1.64,0,2.56,0l-20.02,14.78v-38.86c0-14.24-9.9-14.24-18.64-14.24h-11.39v9.85h2.85c1.69,0,3.62,0,3.62,8.53v62.11c0,8.53-1.92,8.53-3.62,8.53h-2.85v9.85h36.51v-9.85h-2.85c-1.69,0-3.62,0-3.62-8.53v-11.89l5.58-4.14c6.11.15,8.32,2.02,11.2,12.25,5.39,20.62,18.27,22.16,37.3,22.16h2.85v-9.85h-2.85c-5.34,0-9.22-1.22-14.36-17.54Z"/>
    <path class="cls-3" d="m636.18,433.15v-9.85h-34.18v9.85h2.85c4.91,0,5.93.88,6.12,1.15.22.31.6,1.49-.81,5.7l-10.45,31.55-16.37-46.35-.67-1.9h-11.08l-.64,1.97-15.05,46.01-10.46-31.28c-1.38-4.15-1-5.34-.77-5.66.26-.36,1.38-1.19,6.21-1.19h2.85v-9.85h-45.82v9.85h2.85c3.6,0,8.06.98,10.62,8.66l16.56,49.94.65,1.96h22.89l.65-1.96,10.06-30.58,9.74,30.55.63,1.99h22.91l.65-1.96,16.56-49.95c2.56-7.67,7.02-8.66,10.62-8.66h2.85Z"/>
    <path class="cls-3" d="m670.17,422c-12.14,0-22.17,3.87-28.99,11.18-6.01,6.45-9.32,15.44-9.32,25.32s3.31,18.87,9.32,25.32c6.82,7.31,16.84,11.18,28.99,11.18s22.17-3.87,28.99-11.18c6.01-6.45,9.32-15.44,9.32-25.32s-3.31-18.87-9.32-25.32c-6.82-7.31-16.84-11.18-28.99-11.18Zm-3.26,12.67c.76-.09,1.51-.14,2.23-.14,3.18,0,12.86,0,15.67,22.12,2.02,16.03-1.7,24.43-11.38,25.67-.76.09-1.51.14-2.23.14-3.18,0-12.86,0-15.67-22.12-2.02-16.03,1.7-24.43,11.38-25.67Z"/>
    <path class="cls-3" d="m750.75,422c-12.14,0-22.17,3.87-28.99,11.18-6.01,6.45-9.32,15.44-9.32,25.32s3.31,18.87,9.32,25.32c6.82,7.31,16.84,11.18,28.99,11.18s22.17-3.87,28.99-11.18c6.01-6.45,9.32-15.44,9.32-25.32s-3.31-18.87-9.32-25.32c-6.82-7.31-16.84-11.18-28.99-11.18Zm-3.26,12.67c.76-.09,1.51-.14,2.23-.14,3.18,0,12.86,0,15.67,22.12,2.02,16.03-1.7,24.43-11.38,25.67-.76.09-1.51.14-2.23.14-3.18,0-12.86,0-15.67-22.12-2.02-16.03,1.7-24.43,11.38-25.67Z"/>
    <path class="cls-3" d="m876.1,483.86c-1.69,0-3.62,0-3.62-8.53v-66.25c0-14.24-10.34-14.24-18.64-14.24h-11.4v9.85h2.85c1.69,0,3.62,0,3.62,8.53v18.1c-5.53-5.92-13.59-9.31-22.64-9.31-16.56,0-33.26,11.29-33.26,36.5s16.71,36.5,33.26,36.5c9.29,0,17.54-3.57,23.08-9.79,2.05,8.5,10.91,8.5,18.2,8.5h11.39v-9.85h-2.85Zm-28.48-25.36c0,20.94-9.56,24.06-15.26,24.06-9.61,0-14.49-8.1-14.49-24.06s4.87-24.06,14.49-24.06c5.7,0,15.26,3.13,15.26,24.06Z"/>
  </g>
  <g>
    <path class="cls-4" d="m152.57,555.27c-.72-.27-1.45-.55-2.2-.84-.69-.26-1.43-.53-2.19-.8-6.24-2.25-14-5.06-14-12.17,0-7.51,7.79-10.19,15.08-10.19,6.14,0,11.19,2.05,13.51,5.48,1.79,2.66,1.93,6.09.38,9.93l-.36.91.87.44,3.63,1.81,1.12.56.37-1.2c1.93-6.25,1.41-11.46-1.57-15.5-3.41-4.63-9.92-7.29-17.86-7.29-12.91,0-20.93,5.79-20.93,15.12,0,10.03,8.64,13.48,17.79,17.13,1.11.44,2.23.89,3.37,1.36,1.49.62,2.93,1.17,4.33,1.7,7.43,2.83,12.34,4.69,12.34,12.28,0,9.39-8.25,11.37-15.18,11.37-7.87,0-14.11-2.34-17.11-6.41-2.35-3.19-2.72-7.44-1.11-12.63l.27-.86-.81-.4-3.63-1.81-1.2-.6-.31,1.3c-1.85,7.72-.99,13.92,2.56,18.42,5.38,6.82,15.56,7.84,21.15,7.84,13.22,0,21.11-6.06,21.11-16.21,0-11.31-7.73-14.27-19.43-18.74Z"/>
    <path class="cls-4" d="m195.32,581.35l-1.27-.42-.12,1.33c-.25,2.79-1.8,3.12-2.93,3.12-2.72,0-4.02-1.66-4.02-11.09v-27.6h5.38c3.78,0,3.78-1.92,3.78-3.78v-1.06h-9.16v-14.51h-4.84v1.06q0,13.45-5.74,13.45h-1.06v4.84h5.9v29.24c0,11.87,3.94,14.31,9.86,14.31,3.15,0,7.05-1.79,7.68-6.83l.11-.86-.83-.28-2.72-.91Z"/>
    <path class="cls-4" d="m227.18,540.93c-3.72,0-12.1,1.19-16.63,11.19v-5.32c0-3.23-1.18-4.8-3.72-4.96h-.03s-.03,0-.03,0h-6.5v3.03h1.06c2.86,0,3.47.49,3.47,5.74v29.93c0,5.25-.61,5.74-3.47,5.74h-1.06v3.03h14.82v-3.03h-1.06c-2.86,0-3.47-.49-3.47-5.74v-8.62c0-6.28,1.6-12.92,4.27-17.75,2.12-3.83,5.9-8.4,11.91-8.4,2.38,0,3.95.6,4.79,1.83,1.37,2.01.98,5.82-1.16,11.32l-.35.9.86.43,3.63,1.81,1.03.51.43-1.06c2.89-7.13,3.14-12.81.7-16.42-1.84-2.74-5.12-4.18-9.49-4.18Z"/>
    <path class="cls-4" d="m281.13,570.12l-1.36.68-3.63,1.81-.65.33.07.73c.3,3.12-.46,5.71-2.27,7.71-2.28,2.51-6.22,4.01-10.55,4.01-7.83,0-16.26-5.86-16.26-18.71v-.11c4.3,1.23,9.09,1.9,13.64,1.9,13.04,0,20.83-5.24,20.83-14.03,0-8.32-6.32-13.49-16.48-13.49-6.51,0-12.45,2.32-16.71,6.54-4.6,4.55-7.03,10.96-7.03,18.56,0,6.92,1.89,12.8,5.47,17.02,3.99,4.7,10.02,7.18,17.45,7.18s11.33-3.01,13.6-5.54c3.11-3.48,4.59-8.24,4.06-13.05l-.17-1.51Zm-34.26-8.5c1.62-9.94,8.14-15.84,17.59-15.84s10.73,5.98,10.73,8.55c0,5.57-5.93,9.17-15.1,9.17-3.94,0-8.38-.63-13.22-1.88Z"/>
    <path class="cls-4" d="m326.04,570.12l-1.36.68-3.63,1.81-.65.33.07.73c.3,3.12-.46,5.71-2.27,7.71-2.28,2.51-6.22,4.01-10.55,4.01-7.83,0-16.26-5.86-16.26-18.71v-.11c4.3,1.23,9.09,1.9,13.64,1.9,13.04,0,20.83-5.24,20.83-14.03,0-8.32-6.32-13.49-16.48-13.49-6.51,0-12.45,2.32-16.71,6.54-4.6,4.55-7.03,10.96-7.03,18.56,0,6.92,1.89,12.8,5.47,17.02,3.99,4.7,10.02,7.18,17.45,7.18s11.33-3.01,13.6-5.54c3.11-3.48,4.59-8.24,4.06-13.05l-.17-1.51Zm-34.26-8.5c1.62-9.94,8.14-15.84,17.59-15.84s10.73,5.98,10.73,8.55c0,5.57-5.93,9.17-15.1,9.17-3.94,0-8.38-.63-13.22-1.88Z"/>
    <path class="cls-4" d="m349.61,581.35l-1.27-.42-.12,1.34c-.25,2.79-1.8,3.12-2.93,3.12-2.72,0-4.02-1.66-4.02-11.09v-27.6h5.38c3.5,0,3.78-1.64,3.78-3.78v-1.06h-9.16v-14.51h-4.84v1.06q0,13.45-5.74,13.45h-1.06v4.84h5.9v29.24c0,11.87,3.94,14.31,9.86,14.31,3.15,0,7.04-1.79,7.68-6.83l.11-.86-.83-.28-2.72-.91Z"/>
    <path class="cls-4" d="m448.33,527.32c-2.82.12-3.36.97-5.21,4.57l-26.18,51.04-26.09-51.04-.04-.08c-1.9-3.53-2.35-4.37-5.21-4.49h-5.48s-1.06,0-1.06,0v3.03h1.06c2.86,0,3.47.49,3.47,5.74v44.45c0,5.25-.61,5.74-3.47,5.74h-1.06v3.03h13.92v-3.03h-1.06c-2.86,0-3.47-.49-3.47-5.74v-40.76l25.02,48.96.3.58h5.38l.3-.58,25.12-48.97v40.78c0,5.25-.61,5.74-3.47,5.74h-1.06v3.03h14.82v-3.03h-1.06c-2.86,0-3.47-.49-3.47-5.74v-44.45c0-5.25.61-5.74,3.47-5.74h1.06v-3.03h-6.5Z"/>
    <path class="cls-4" d="m497.73,584.35c-.46,0-.89-.58-.89-4.8v-15.24c0-14.03-2.86-23.38-16.84-23.38-6.9,0-12.54,2.41-15.88,6.78-2.91,3.81-3.75,8.67-2.38,13.7l.34,1.25,1.16-.58,3.63-1.81.84-.42-.32-.89c-1.01-2.8-.64-5.66,1.06-8.07,2.25-3.2,6.4-5.11,11.1-5.11,8.65,0,10.77,4.44,11.31,12.66-14.01,2.45-32.69,5.92-32.69,19.57,0,7.54,5.03,12.22,13.13,12.22s15.42-3.47,19.8-9.2v2.79c0,3.5,1.74,5.51,4.78,5.51,1.62,0,3.88-.85,5.35-3.22l.16-.26v-2.87l-1.51.7c-.98.46-1.7.69-2.14.69Zm-6.64-21.18v4.95c0,11.78-11.44,17.26-19.17,17.26-5.39,0-8.01-2.44-8.01-7.47,0-8.89,14.5-12.92,27.18-14.75Z"/>
    <path class="cls-4" d="m529.79,540.93c-3.72,0-12.1,1.19-16.63,11.19v-5.32c0-3.23-1.18-4.8-3.72-4.96h-.03s-.03,0-.03,0h-6.5v3.03h1.06c2.86,0,3.47.49,3.47,5.74v29.93c0,5.25-.61,5.74-3.47,5.74h-1.06v3.03h14.82v-3.03h-1.06c-2.86,0-3.47-.49-3.47-5.74v-8.62c0-6.28,1.6-12.92,4.27-17.75,2.12-3.83,5.9-8.4,11.91-8.4,2.38,0,3.95.6,4.79,1.83,1.37,2.01.98,5.82-1.16,11.32l-.35.9.86.43,3.63,1.81,1.03.51.43-1.06c2.89-7.13,3.13-12.81.7-16.42-1.84-2.74-5.12-4.18-9.49-4.18Z"/>
    <path class="cls-4" d="m577.15,573.21c-2.94-8.38-7.26-13.09-12.87-14.05l11.76-10.39c3.77-3.32,6.11-3.91,9.64-3.91h1.06v-3.03h-19.81v3.03h1.06c2.78,0,4.14.11,4.78.25-.46.52-1.38,1.33-2.21,2.07l-16.92,14.87v-34.57c0-3.71-1.15-5.44-3.72-5.6h-.03s-.03,0-.03,0h-6.5v3.03h1.06c2.86,0,3.47.49,3.47,5.74v49.89c0,5.25-.61,5.74-3.47,5.74h-1.06v3.03h14.82v-3.03h-1.06c-2.86,0-3.47-.49-3.47-5.74v-12.04l5.5-4.86c7.39.14,10.11,4.14,12.75,11.89,3.77,11.2,6.7,13.78,15.7,13.78h1.06v-3.03h-1.06c-5.29,0-7.24-3.98-10.43-13.08Z"/>
    <path class="cls-4" d="m626.01,570.12l-1.36.68-3.63,1.81-.65.33.07.73c.3,3.12-.46,5.71-2.27,7.71-2.28,2.51-6.22,4.01-10.55,4.01-7.83,0-16.26-5.86-16.26-18.71v-.11c4.3,1.23,9.09,1.9,13.64,1.9,13.04,0,20.83-5.24,20.83-14.03,0-8.32-6.32-13.49-16.48-13.49-6.51,0-12.45,2.32-16.71,6.54-4.6,4.55-7.03,10.96-7.03,18.56,0,6.92,1.89,12.8,5.47,17.02,3.99,4.7,10.02,7.18,17.45,7.18s11.33-3.01,13.6-5.54c3.11-3.48,4.59-8.24,4.06-13.05l-.17-1.51Zm-34.26-8.5c1.62-9.94,8.14-15.84,17.59-15.84s10.73,5.98,10.73,8.55c0,5.57-5.93,9.17-15.1,9.17-3.94,0-8.38-.63-13.22-1.88Z"/>
    <path class="cls-4" d="m652.31,582.26l-2.72-.91-1.27-.42-.12,1.33c-.26,2.79-1.8,3.12-2.93,3.12-2.72,0-4.02-1.66-4.02-11.09v-27.6h5.38c3.78,0,3.78-1.92,3.78-3.78v-1.06h-9.16v-14.51h-4.85v1.06q0,13.45-5.74,13.45h-1.06v4.84h5.9v29.24c0,11.87,3.94,14.31,9.86,14.31,3.15,0,7.05-1.79,7.67-6.83l.11-.86-.83-.28Z"/>
    <path class="cls-4" d="m843.86,538.6l-.18-.2v-4.93c0-5.7-5.19-10.34-11.56-10.34h-4.44c-4.43,0-8.41,2.23-10.37,5.81l-.63,1.14-.63-1.14c-1.97-3.58-5.94-5.81-10.37-5.81h-4.44c-4.22,0-8.11,2.07-10.15,5.39l-.61.99-.61-.99c-2.04-3.33-5.92-5.39-10.15-5.39h-4.12c-4.22,0-8.11,2.07-10.15,5.39l-.61.99-.61-.99c-2.04-3.33-5.92-5.39-10.15-5.39h-4.44c-4.43,0-8.41,2.23-10.37,5.81l-.63,1.14-.63-1.14c-1.97-3.58-5.94-5.81-10.37-5.81h-4.44c-6.37,0-11.56,4.64-11.56,10.34v4.93l-.18.2c-7.48,8.56-15.35,17.67-25.51,29.52-2.92,3.4-4.47,7.77-4.38,12.31.01.54.03,1.09.05,1.63.35,9.47,6.03,17.15,14.83,20.04,2.21.73,4.48,1.1,6.74,1.1,6.49,0,12.71-3.11,17.07-8.52.17-.22.36-.42.56-.66l.34-.39c.16-.18.39-.28.63-.28.28.01.51.13.66.32,4.68,6.28,10.7,9.46,17.91,9.47,7.31,0,13.37-3.2,18.01-9.53.16-.21.41-.34.67-.34s.51.13.67.34c4.71,6.37,10.57,9.48,17.94,9.52,7.36-.04,13.22-3.16,17.93-9.52.16-.21.41-.34.67-.34s.51.13.67.34c4.64,6.32,10.7,9.53,18.01,9.53,7.21,0,13.23-3.19,17.9-9.46.16-.21.39-.32.64-.33h0c.27,0,.5.1.66.28l.33.37c.22.25.4.45.57.67,4.36,5.42,10.58,8.52,17.07,8.52,2.26,0,4.53-.37,6.74-1.1,8.79-2.89,14.48-10.57,14.83-20.04.02-.54.04-1.09.05-1.63.09-4.53-1.46-8.91-4.38-12.31-10.17-11.85-18.04-20.96-25.51-29.52Zm-22.5-1.55v-3.58c0-2.77,2.9-5.11,6.33-5.11h4.44c3.43,0,6.33,2.34,6.33,5.11v4.31h-.71c-2.91,0-5.83,0-8.74,0h-6.92s-.71,0-.71,0v-.71Zm-26.43-.01v-3.57c0-2.77,2.9-5.11,6.33-5.11h4.44c3.43,0,6.33,2.34,6.33,5.11v4.29h-.71s-15.66,0-15.66,0h-.71v-.71Zm-25.63,0v-3.57c0-2.77,2.9-5.11,6.33-5.11h4.12c3.43,0,6.33,2.34,6.33,5.11v4.28h-.71s-7.67,0-7.67,0h-7.67s-.71,0-.71,0v-.71Zm-5.58,27.22l.04-.24c.22-1.23.43-2.46.63-3.7.62-3.77,1.29-7.62,1.89-11.02l.51-2.89c.08-.48.2-.93.32-1.42.06-.24.11-.46.17-.69.09-.38.43-.64.81-.64h19.2c.39,0,.72.26.81.64.05.23.11.46.16.67.12.5.24.96.32,1.44l.51,2.89c.6,3.4,1.28,7.25,1.89,11.02.2,1.23.42,2.47.63,3.7l.04.22c.51,2.91,1.03,5.9,1.38,8.87.03.24-.05.47-.2.65-.16.18-.39.28-.62.28h-29.04c-.23,0-.46-.1-.62-.27-.16-.18-.24-.42-.21-.65.35-2.98.87-5.97,1.38-8.86Zm-20.36-27.21v-3.58c0-2.77,2.9-5.11,6.33-5.11h4.44c3.43,0,6.33,2.34,6.33,5.11v4.28h-.71s-15.66,0-15.66,0h-.71s0-.71,0-.71Zm-26.43.01v-3.59c0-2.77,2.9-5.11,6.33-5.11h4.44c3.43,0,6.33,2.34,6.33,5.11v4.3h-.71s-6.92,0-6.92,0c-2.91,0-5.83,0-8.74,0h-.71s0-.71,0-.71Zm1.73,46.99c-1.14,7.82-7.56,13.28-15.62,13.28-.31,0-.62,0-.94-.02-7.83-.41-14.13-6.75-14.65-14.75,0-.13,0-.26-.01-.39,0-.13,0-.23-.01-.33-.01-.24.06-.46.21-.63.16-.18.38-.27.62-.27h29.76c.23,0,.45.1.6.26.15.16.23.37.23.6-.03.88-.1,1.59-.19,2.26Zm1.46-12.73c-.29.58-.52,1.25-.71,2.07-.09.38-.43.64-.81.64h-28.31c-.31,0-.59-.17-.74-.45-.14-.27-.12-.6.05-.86.53-.77,1.09-1.48,1.73-2.17,5.04-5.49,9.97-11.26,14.73-16.84l.07-.08c2.35-2.76,4.79-5.6,7.21-8.39.67-.77,1.75-1.6,2.77-1.62,3.16-.06,6.3-.07,8.68-.07h8.24c.29.01.56.17.71.41.15.23.16.55.03.81l-3.44,6.68c-.92,1.78-1.85,3.56-2.77,5.34l-.03.06c-2.46,4.73-5,9.62-7.4,14.47Zm22.51,25.9c-.68.08-1.37.12-2.05.12-7.56,0-13.7-4.74-15.28-11.79-.3-1.32-.5-2.53-.62-3.7-.03-.23.05-.46.21-.64.16-.18.38-.28.62-.28h29.8c.45,0,.83.37.83.82.06,7.8-5.88,14.59-13.51,15.47Zm17.62-46.69l-.05.32v.05c-.78,4.67-1.58,9.5-2.48,14.2-.54,2.86-.94,5.53-1.2,8.17-.04.43-.4.75-.83.75h-29.18c-.27,0-.53-.13-.68-.36-.16-.24-.19-.53-.09-.79.3-.77.64-1.49,1.03-2.19,3.63-6.5,7.06-13.27,10.37-19.82l.26-.52c.79-1.56,1.58-3.11,2.37-4.67.78-1.53,1.75-2.16,3.36-2.16h.11c1.97.04,17.03.14,17.18.14.27.01.49.13.64.31.15.18.21.43.17.66-.34,1.97-.66,3.94-.99,5.89Zm33.15,31.68c-.46,8.06-6.6,14.54-14.26,15.07-.41.03-.82.04-1.23.04-.05,0-.1,0-.15,0h-.06s-.05,0-.05,0c-.05,0-.1,0-.15,0-.41,0-.82-.01-1.23-.04-7.67-.53-13.8-7.01-14.26-15.07,0-.07-.01-.42-.01-.42-.01-.2.07-.43.23-.59.15-.16.37-.26.6-.26h29.76c.23,0,.45.1.61.26.15.16.24.39.23.62,0,0,0,.32-.01.4Zm5.48-8.93c-.26-2.64-.66-5.31-1.2-8.17-.89-4.71-1.69-9.54-2.47-14.2v-.05s-.06-.32-.06-.32c-.32-1.95-.65-3.91-.98-5.89-.04-.24.02-.48.17-.66.15-.18.37-.3.6-.31.19,0,15.25-.11,17.21-.14h.12c1.61,0,2.59.62,3.37,2.16.79,1.55,1.58,3.11,2.37,4.67l.24.48c3.33,6.58,6.76,13.36,10.39,19.86.39.7.73,1.42,1.03,2.2.1.24.07.53-.08.76-.17.24-.42.37-.69.37h-29.18c-.43,0-.79-.32-.83-.76Zm31.22,12.27c-1.58,7.05-7.72,11.79-15.28,11.79-.68,0-1.37-.04-2.05-.12-7.63-.88-13.56-7.67-13.51-15.47,0-.46.38-.83.83-.83h29.8c.24,0,.46.1.62.28.16.18.23.41.21.64-.12,1.17-.33,2.38-.62,3.7Zm5.89-12.15c-.19-.82-.43-1.5-.71-2.07-2.4-4.85-4.94-9.74-7.4-14.47l-.03-.06c-.93-1.78-1.85-3.56-2.77-5.34l-3.44-6.67c-.13-.26-.12-.58.04-.82.14-.24.42-.39.7-.39h8.24c2.38-.01,5.52,0,8.68.06,1.02.02,2.1.85,2.77,1.62,2.42,2.78,4.85,5.63,7.21,8.39l.07.08c4.76,5.58,9.69,11.34,14.73,16.84.64.69,1.2,1.4,1.73,2.17.18.25.2.58.05.86-.14.27-.43.45-.74.45h-28.31c-.39,0-.72-.26-.81-.64Zm31.98,8.73c0,.16,0,.29-.01.42-.52,8-6.82,14.34-14.65,14.75-.32.02-.63.02-.94.02-8.06,0-14.48-5.46-15.62-13.28-.1-.66-.16-1.38-.19-2.25,0-.23.08-.45.23-.61.15-.16.37-.26.6-.26h29.76c.23,0,.45.1.61.27.16.17.23.39.22.61,0,.12-.01.22-.01.32Z"/>
  </g>
</svg>